<svg width="61" height="61" viewBox="0 0 61 61" fill="none" xmlns="http://www.w3.org/2000/svg">
<path d="M29.5 33.5576V52.6045C29.1434 52.4041 28.7263 52.1088 28.1748 51.7148L14.3838 41.8633C13.5626 41.2767 13.1514 40.9835 12.9297 40.5527C12.7081 40.122 12.708 39.6174 12.708 38.6084V22.3916C12.708 22.0708 12.7087 21.801 12.7158 21.5684L29.5 33.5576ZM48.2832 21.5684C48.2903 21.801 48.292 22.0708 48.292 22.3916V38.6084C48.292 39.6174 48.2919 40.122 48.0703 40.5527C47.9041 40.8758 47.6314 41.1216 47.1592 41.4717L46.6162 41.8633L32.8252 51.7148C32.2737 52.1088 31.8566 52.4041 31.5 52.6045V33.5566L48.2832 21.5684ZM30.5 8.08301C31.1409 8.08301 31.7025 8.48422 32.8252 9.28613L46.6162 19.1367C46.9445 19.3712 47.2068 19.5602 47.418 19.7285L30.499 31.8125L13.5801 19.7285C13.7915 19.56 14.0549 19.3717 14.3838 19.1367L28.1748 9.28613C29.2975 8.48422 29.8591 8.08301 30.5 8.08301Z" fill="#001A4D"/>
</svg>
