<svg width="19" height="19" viewBox="0 0 19 19" fill="none" xmlns="http://www.w3.org/2000/svg">
<path d="M16.7904 18C17.3268 18 17.7617 17.5652 17.7617 17.0287C17.7617 16.4923 17.3268 16.0574 16.7904 16.0574L1.73305 16.0574C1.1966 16.0574 0.761719 16.4923 0.761719 17.0287C0.761719 17.5652 1.1966 18 1.73305 18L16.7904 18Z" fill="#001A4D" stroke="#001A4D"/>
<rect width="3.62823" height="10.6847" rx="0.2" transform="matrix(-1 0 0 1 16.9717 4.73535)" fill="#001A4D"/>
<rect width="3.62823" height="10.6847" rx="0.2" transform="matrix(-1 0 0 1 5.15088 4.73535)" fill="#001A4D"/>
<rect width="6.96386" height="10.6847" rx="0.2" transform="matrix(-1 0 0 1 12.8169 4.43164)" fill="#001A4D"/>
<rect width="1.58003" height="2.12479" transform="matrix(-1 0 0 1 16.7959 5.76733)" fill="white"/>
<rect width="1.58003" height="2.12479" transform="matrix(-1 0 0 1 11.7637 5.09961)" fill="white"/>
<rect width="1.58003" height="2.12479" transform="matrix(-1 0 0 1 11.7637 7.52783)" fill="white"/>
<rect width="1.58003" height="2.12479" transform="matrix(-1 0 0 1 11.7637 9.95605)" fill="white"/>
<rect width="1.58003" height="2.12479" transform="matrix(-1 0 0 1 11.7637 12.3845)" fill="white"/>
<rect width="1.58004" height="2.12479" transform="matrix(-1 0 0 1 8.36914 5.09961)" fill="white"/>
<rect width="1.58004" height="2.12479" transform="matrix(-1 0 0 1 8.36914 7.52783)" fill="white"/>
<rect width="1.58004" height="2.12479" transform="matrix(-1 0 0 1 8.36914 9.95605)" fill="white"/>
<rect width="1.58004" height="2.12479" transform="matrix(-1 0 0 1 8.36914 12.3845)" fill="white"/>
<rect width="1.58003" height="2.12479" transform="matrix(-1 0 0 1 4.9751 5.70654)" fill="white"/>
<rect width="1.58003" height="2.12479" transform="matrix(-1 0 0 1 16.7959 8.01343)" fill="white"/>
<rect width="1.58003" height="2.12479" transform="matrix(-1 0 0 1 4.9751 7.95288)" fill="white"/>
<rect width="1.58003" height="2.12479" transform="matrix(-1 0 0 1 16.7959 10.2598)" fill="white"/>
<rect width="1.58003" height="2.12479" transform="matrix(-1 0 0 1 4.9751 10.199)" fill="white"/>
<rect width="1.58003" height="2.12479" transform="matrix(-1 0 0 1 16.7959 12.5059)" fill="white"/>
<rect width="1.58003" height="2.12479" transform="matrix(-1 0 0 1 4.9751 12.4453)" fill="white"/>
<rect width="1.58003" height="2.12479" transform="matrix(-1 0 0 1 15.0991 5.76733)" fill="white"/>
<rect width="1.58003" height="2.12479" transform="matrix(-1 0 0 1 10.0664 5.09961)" fill="white"/>
<rect width="1.58003" height="2.12479" transform="matrix(-1 0 0 1 10.0664 7.52783)" fill="white"/>
<rect width="1.58003" height="2.12479" transform="matrix(-1 0 0 1 10.0664 9.95605)" fill="white"/>
<rect width="1.58003" height="2.12479" transform="matrix(-1 0 0 1 10.0664 12.3845)" fill="white"/>
<rect width="1.58004" height="2.12479" transform="matrix(-1 0 0 1 3.27783 5.70654)" fill="white"/>
<rect width="1.58003" height="2.12479" transform="matrix(-1 0 0 1 15.0991 8.01343)" fill="white"/>
<rect width="1.58004" height="2.12479" transform="matrix(-1 0 0 1 3.27783 7.95288)" fill="white"/>
<rect width="1.58003" height="2.12479" transform="matrix(-1 0 0 1 15.0991 10.2598)" fill="white"/>
<rect width="1.58004" height="2.12479" transform="matrix(-1 0 0 1 3.27783 10.199)" fill="white"/>
<rect width="1.58003" height="2.12479" transform="matrix(-1 0 0 1 15.0991 12.5059)" fill="white"/>
<rect width="1.58004" height="2.12479" transform="matrix(-1 0 0 1 3.27783 12.4453)" fill="white"/>
<path d="M11.9976 1C11.9976 0.447715 11.5498 0 10.9976 0L7.4967 0C6.94441 0 6.4967 0.447715 6.4967 1L6.4967 4.24958L11.9976 4.24958V1Z" fill="#001A4D"/>
<rect width="1.1704" height="2.30691" rx="0.585198" transform="matrix(-1 0 0 1 11.1196 0.971436)" fill="white"/>
<path d="M12.8169 4.73525C12.8169 4.1988 12.382 3.76392 11.8456 3.76392L6.82437 3.76392C6.28792 3.76392 5.85304 4.1988 5.85304 4.73525L12.8169 4.73525Z" fill="#001A4D"/>
<rect width="1.1704" height="2.30691" rx="0.585198" transform="matrix(-1 0 0 1 8.54492 0.971436)" fill="white"/>
<rect width="1.1704" height="2.30691" rx="0.585198" transform="matrix(-1 0 0 1 9.83252 0.971436)" fill="white"/>
</svg>
