<svg width="19" height="19" viewBox="0 0 19 19" fill="none" xmlns="http://www.w3.org/2000/svg">
<path d="M17.0287 17.9998C17.5651 17.9998 18 17.5649 18 17.0285C18 16.492 17.5651 16.0571 17.0287 16.0571L1.97133 16.0571C1.43488 16.0571 1 16.492 1 17.0285C1 17.5649 1.43488 17.9998 1.97133 17.9998L17.0287 17.9998Z" fill="white" stroke="white"/>
<rect width="3.62823" height="10.6847" rx="0.2" transform="matrix(-1 0 0 1 17.21 4.73535)" fill="white"/>
<rect width="3.62823" height="10.6847" rx="0.2" transform="matrix(-1 0 0 1 5.38916 4.73535)" fill="white"/>
<rect width="6.96386" height="10.6847" rx="0.2" transform="matrix(-1 0 0 1 13.0552 4.43164)" fill="white"/>
<rect width="1.58003" height="2.12479" transform="matrix(-1 0 0 1 17.0342 5.76709)" fill="#031F57"/>
<rect width="1.58003" height="2.12479" transform="matrix(-1 0 0 1 12.002 5.09961)" fill="#031F57"/>
<rect width="1.58003" height="2.12479" transform="matrix(-1 0 0 1 12.002 7.52783)" fill="#031F57"/>
<rect width="1.58003" height="2.12479" transform="matrix(-1 0 0 1 12.002 9.95605)" fill="#031F57"/>
<rect width="1.58003" height="2.12479" transform="matrix(-1 0 0 1 12.002 12.3843)" fill="#031F57"/>
<rect width="1.58004" height="2.12479" transform="matrix(-1 0 0 1 8.60742 5.09961)" fill="#031F57"/>
<rect width="1.58004" height="2.12479" transform="matrix(-1 0 0 1 8.60742 7.52783)" fill="#031F57"/>
<rect width="1.58004" height="2.12479" transform="matrix(-1 0 0 1 8.60742 9.95605)" fill="#031F57"/>
<rect width="1.58004" height="2.12479" transform="matrix(-1 0 0 1 8.60742 12.3843)" fill="#031F57"/>
<rect width="1.58003" height="2.12479" transform="matrix(-1 0 0 1 5.21338 5.70654)" fill="#031F57"/>
<rect width="1.58003" height="2.12479" transform="matrix(-1 0 0 1 17.0342 8.01367)" fill="#031F57"/>
<rect width="1.58003" height="2.12479" transform="matrix(-1 0 0 1 5.21338 7.95264)" fill="#031F57"/>
<rect width="1.58003" height="2.12479" transform="matrix(-1 0 0 1 17.0342 10.2598)" fill="#031F57"/>
<rect width="1.58003" height="2.12479" transform="matrix(-1 0 0 1 5.21338 10.1992)" fill="#031F57"/>
<rect width="1.58003" height="2.12479" transform="matrix(-1 0 0 1 17.0342 12.5059)" fill="#031F57"/>
<rect width="1.58003" height="2.12479" transform="matrix(-1 0 0 1 5.21338 12.4453)" fill="#031F57"/>
<rect width="1.58003" height="2.12479" transform="matrix(-1 0 0 1 15.3374 5.76709)" fill="#031F57"/>
<rect width="1.58003" height="2.12479" transform="matrix(-1 0 0 1 10.3047 5.09961)" fill="#031F57"/>
<rect width="1.58003" height="2.12479" transform="matrix(-1 0 0 1 10.3047 7.52783)" fill="#031F57"/>
<rect width="1.58003" height="2.12479" transform="matrix(-1 0 0 1 10.3047 9.95605)" fill="#031F57"/>
<rect width="1.58003" height="2.12479" transform="matrix(-1 0 0 1 10.3047 12.3843)" fill="#031F57"/>
<rect width="1.58004" height="2.12479" transform="matrix(-1 0 0 1 3.51611 5.70654)" fill="#031F57"/>
<rect width="1.58003" height="2.12479" transform="matrix(-1 0 0 1 15.3374 8.01367)" fill="#031F57"/>
<rect width="1.58004" height="2.12479" transform="matrix(-1 0 0 1 3.51611 7.95264)" fill="#031F57"/>
<rect width="1.58003" height="2.12479" transform="matrix(-1 0 0 1 15.3374 10.2598)" fill="#031F57"/>
<rect width="1.58004" height="2.12479" transform="matrix(-1 0 0 1 3.51611 10.1992)" fill="#031F57"/>
<rect width="1.58003" height="2.12479" transform="matrix(-1 0 0 1 15.3374 12.5059)" fill="#031F57"/>
<rect width="1.58004" height="2.12479" transform="matrix(-1 0 0 1 3.51611 12.4453)" fill="#031F57"/>
<path d="M12.2358 1C12.2358 0.447715 11.7881 0 11.2358 0L7.73498 0C7.1827 0 6.73498 0.447715 6.73498 1L6.73498 4.24958L12.2358 4.24958V1Z" fill="white"/>
<rect width="1.1704" height="2.30691" rx="0.585198" transform="matrix(-1 0 0 1 11.3579 0.971191)" fill="#031F57"/>
<path d="M13.0552 4.735C13.0552 4.19855 12.6203 3.76367 12.0838 3.76367L7.06265 3.76367C6.5262 3.76367 6.09132 4.19855 6.09132 4.735L13.0552 4.735Z" fill="white"/>
<rect width="1.1704" height="2.30691" rx="0.585198" transform="matrix(-1 0 0 1 8.7832 0.971191)" fill="#031F57"/>
<rect width="1.1704" height="2.30691" rx="0.585198" transform="matrix(-1 0 0 1 10.0708 0.971191)" fill="#031F57"/>
</svg>
