<svg width="61" height="61" viewBox="0 0 61 61" fill="none" xmlns="http://www.w3.org/2000/svg">
<path d="M22.8752 25.4168L32.2999 32.4854C32.7184 32.7993 33.3081 32.7376 33.6525 32.3439L50.8335 12.7085" stroke="#33363F" stroke-width="5" stroke-linecap="round"/>
<path d="M53.375 30.5C53.375 35.2796 51.8779 39.9391 49.0939 43.8242C46.3099 47.7092 42.3789 50.6247 37.8529 52.161C33.327 53.6974 28.4335 53.7774 23.8597 52.39C19.286 51.0026 15.2617 48.2173 12.352 44.4254C9.44242 40.6335 7.79363 36.0255 7.63725 31.2484C7.48086 26.4714 8.82474 21.7654 11.4801 17.7913C14.1355 13.8173 17.969 10.7748 22.4423 9.09115C26.9155 7.40754 31.8038 7.1674 36.4205 8.40445" stroke="#33363F" stroke-width="5" stroke-linecap="round"/>
</svg>
