<svg width="30" height="30" viewBox="0 0 30 30" fill="none" xmlns="http://www.w3.org/2000/svg">
<path d="M14.8408 10.1582C16.1163 12.1675 17.8316 13.8718 19.8643 15.1347L10.8565 24.1435C10.4314 24.5686 10.2182 24.7811 9.95706 24.9208C9.69611 25.0604 9.40146 25.1195 8.81253 25.2373L4.48538 26.1025C4.15277 26.169 3.98623 26.202 3.89163 26.1074C3.79736 26.0128 3.8301 25.8466 3.89651 25.5146L4.76272 21.1874C4.88061 20.598 4.93939 20.303 5.07913 20.0419C5.21886 19.7809 5.43147 19.5685 5.85647 19.1435L14.8408 10.1582ZM20.8867 4.61128C21.1265 4.56706 21.3726 4.56709 21.6123 4.61128C22.0711 4.69589 22.4725 5.00263 23.0733 5.58003L23.75 6.24995C24.7668 7.26677 25.2758 7.77512 25.3887 8.38667C25.4329 8.62641 25.4329 8.87251 25.3887 9.11225C25.2759 9.7239 24.7671 10.2329 23.75 11.2499L21.3223 13.6767C19.2387 12.478 17.5088 10.7608 16.2949 8.70405L18.75 6.24995C19.7669 5.23307 20.2752 4.72421 20.8867 4.61128Z" fill="white"/>
</svg>
