<svg width="34" height="34" viewBox="0 0 34 34" fill="none" xmlns="http://www.w3.org/2000/svg">
<path d="M16.916 11.4165C18.358 13.6964 20.3027 15.6286 22.6094 17.0562L12.1895 27.4771C11.7645 27.902 11.5521 28.1147 11.291 28.2544C11.0299 28.3941 10.735 28.4529 10.1455 28.5708L4.98538 29.603C4.65278 29.6695 4.48624 29.7025 4.39163 29.6079C4.29735 29.5133 4.33011 29.3471 4.39651 29.0151L5.42874 23.854C5.54652 23.2651 5.60561 22.9704 5.74515 22.7095C5.88488 22.4484 6.09745 22.2351 6.52249 21.8101L16.916 11.4165ZM24.083 5.07861C24.9114 5.07861 25.5796 5.74704 26.916 7.0835C28.2525 8.41994 28.9217 9.08821 28.9219 9.9165C28.9219 10.7449 28.2552 11.4123 26.9219 12.7456L24.0684 15.5981C21.7106 14.2347 19.7507 12.29 18.3701 9.9624L21.2549 7.07861C22.5881 5.7454 23.2547 5.0787 24.083 5.07861Z" fill="#001A4D"/>
</svg>
