<svg width="61" height="61" viewBox="0 0 61 61" fill="none" xmlns="http://www.w3.org/2000/svg">
<path d="M22.875 15.25C22.875 16.2513 23.0722 17.2429 23.4554 18.168C23.8386 19.0931 24.4003 19.9336 25.1083 20.6417C25.8164 21.3497 26.6569 21.9114 27.582 22.2946C28.5071 22.6778 29.4987 22.875 30.5 22.875C31.5013 22.875 32.4929 22.6778 33.418 22.2946C34.3431 21.9114 35.1836 21.3497 35.8917 20.6417C36.5997 19.9336 37.1614 19.0931 37.5446 18.168C37.9278 17.2429 38.125 16.2513 38.125 15.25C38.125 14.2487 37.9278 13.2571 37.5446 12.332C37.1614 11.4069 36.5997 10.5664 35.8917 9.85831C35.1836 9.15026 34.3431 8.58861 33.418 8.20542C32.4929 7.82223 31.5013 7.625 30.5 7.625C29.4987 7.625 28.5071 7.82223 27.582 8.20542C26.6569 8.58861 25.8164 9.15027 25.1083 9.85831C24.4003 10.5664 23.8386 11.4069 23.4554 12.332C23.0722 13.2572 22.875 14.2487 22.875 15.25L22.875 15.25Z" stroke="#33363F" stroke-width="2"/>
<path d="M11.2794 35.3332C10.4122 35.8338 9.65212 36.5004 9.04255 37.2948C8.43298 38.0892 7.98585 38.9959 7.72668 39.9631C7.46752 40.9303 7.4014 41.9391 7.5321 42.9319C7.6628 43.9246 7.98776 44.8819 8.48843 45.7491C8.98909 46.6163 9.65566 47.3763 10.4501 47.9859C11.2445 48.5955 12.1512 49.0426 13.1184 49.3018C14.0856 49.5609 15.0944 49.6271 16.0871 49.4964C17.0799 49.3657 18.0372 49.0407 18.9044 48.54C19.7715 48.0394 20.5316 47.3728 21.1412 46.5784C21.7508 45.784 22.1979 44.8773 22.4571 43.9101C22.7162 42.9429 22.7823 41.9341 22.6516 40.9413C22.5209 39.9486 22.196 38.9913 21.6953 38.1241C21.1946 37.2569 20.5281 36.4968 19.7337 35.8873C18.9393 35.2777 18.0326 34.8306 17.0654 34.5714C16.0982 34.3122 15.0894 34.2461 14.0966 34.3768C13.1038 34.5075 12.1465 34.8325 11.2794 35.3332L11.2794 35.3332Z" stroke="#33363F" stroke-width="2"/>
<path d="M49.7206 35.3332C50.5878 35.8338 51.3479 36.5004 51.9575 37.2948C52.567 38.0892 53.0142 38.9959 53.2733 39.9631C53.5325 40.9303 53.5986 41.9391 53.4679 42.9319C53.3372 43.9246 53.0122 44.8819 52.5116 45.7491C52.0109 46.6163 51.3443 47.3763 50.5499 47.9859C49.7555 48.5955 48.8488 49.0426 47.8816 49.3018C46.9144 49.5609 45.9056 49.6271 44.9129 49.4964C43.9201 49.3657 42.9628 49.0407 42.0956 48.54C41.2285 48.0394 40.4684 47.3728 39.8588 46.5784C39.2492 45.784 38.8021 44.8773 38.5429 43.9101C38.2838 42.9429 38.2177 41.9341 38.3484 40.9413C38.4791 39.9486 38.804 38.9913 39.3047 38.1241C39.8054 37.2569 40.4719 36.4968 41.2663 35.8873C42.0607 35.2777 42.9674 34.8306 43.9346 34.5714C44.9019 34.3122 45.9106 34.2461 46.9034 34.3768C47.8962 34.5075 48.8535 34.8325 49.7206 35.3332L49.7206 35.3332Z" stroke="#33363F" stroke-width="2"/>
<path d="M42.0957 48.541C42.7605 48.9248 43.4785 49.2042 44.2246 49.373C42.5572 50.7744 40.6829 51.9157 38.6641 52.752L38.1758 52.9463C35.7283 53.8901 33.1262 54.3759 30.5 54.376L29.9746 54.3691C27.3522 54.3045 24.7622 53.7569 22.3359 52.752C20.3173 51.9157 18.4436 50.7743 16.7764 49.373C17.5221 49.2041 18.2398 48.9246 18.9043 48.541C18.9116 48.5368 18.9185 48.5316 18.9258 48.5273C20.2108 49.4879 21.6128 50.2876 23.1016 50.9043C25.3005 51.8151 27.6478 52.3116 30.0244 52.3701L30.5 52.376C32.8798 52.3759 35.2381 51.9363 37.4561 51.0811L37.8984 50.9043C39.387 50.2877 40.7885 49.4877 42.0732 48.5273C42.0807 48.5317 42.0882 48.5367 42.0957 48.541ZM23.2178 12.9902C22.9909 13.721 22.875 14.4832 22.875 15.251C22.875 15.2598 22.875 15.2686 22.875 15.2773L22.6641 15.3682C20.4906 16.3318 18.5121 17.689 16.8291 19.3721L16.4971 19.7119C14.8577 21.4339 13.5486 23.4445 12.6377 25.6436L12.4609 26.0859C11.6626 28.156 11.2265 30.3484 11.1719 32.5664L11.166 33.042C11.166 33.8052 11.2112 34.5664 11.3008 35.3213C11.2936 35.3254 11.2865 35.3298 11.2793 35.334C10.6143 35.7179 10.0126 36.1998 9.49316 36.7617C9.30662 35.7085 9.19927 34.6406 9.17285 33.5674L9.16602 33.042C9.16607 30.4158 9.6518 27.8137 10.5957 25.3662L10.79 24.8779C11.7951 22.4516 13.2392 20.233 15.0479 18.333L15.415 17.957C17.2721 16.1 19.4554 14.6033 21.8535 13.54L22.3359 13.333C22.6275 13.2122 22.9217 13.0978 23.2178 12.9902ZM38.1758 13.1377L38.6641 13.333C41.0903 14.3381 43.309 15.7821 45.209 17.5908L45.585 17.957C47.442 19.814 48.9387 21.9975 50.002 24.3955L50.209 24.8779C51.281 27.4661 51.833 30.2406 51.833 33.042C51.833 34.292 51.7228 35.5366 51.5059 36.7617C50.9865 36.2 50.3855 35.7179 49.7207 35.334C49.7131 35.3296 49.7049 35.3256 49.6973 35.3213C49.7869 34.5663 49.833 33.8053 49.833 33.042C49.833 30.5033 49.3329 27.989 48.3613 25.6436L48.1738 25.2061C47.2102 23.0328 45.8528 21.054 44.1699 19.3711L43.8301 19.0391C42.1673 17.4562 40.2348 16.1832 38.124 15.2773C38.1241 15.2686 38.125 15.2598 38.125 15.251C38.125 14.4827 38.0074 13.7204 37.7803 12.9893C37.9126 13.0373 38.0443 13.087 38.1758 13.1377Z" fill="#33363F"/>
</svg>
