<svg width="51" height="49" viewBox="0 0 51 49" fill="none" xmlns="http://www.w3.org/2000/svg">
<path d="M23.6147 1.32482C24.2437 -0.451823 26.7563 -0.451822 27.3853 1.32482L32.3018 15.2107C32.5782 15.9913 33.307 16.5209 34.1349 16.5425L48.8604 16.9274C50.7445 16.9766 51.5209 19.3662 50.0256 20.5135L38.3386 29.4803C37.6816 29.9844 37.4032 30.8412 37.6384 31.6352L41.8229 45.759C42.3582 47.5661 40.3255 49.0429 38.7724 47.9753L26.6329 39.6312C25.9505 39.1621 25.0495 39.1621 24.3671 39.6312L12.2277 47.9753C10.6745 49.0429 8.64177 47.5661 9.17715 45.759L13.3616 31.6352C13.5968 30.8412 13.3184 29.9844 12.6614 29.4803L0.974385 20.5135C-0.520917 19.3662 0.255505 16.9766 2.13958 16.9274L16.8651 16.5425C17.693 16.5209 18.4218 15.9913 18.6982 15.2107L23.6147 1.32482Z" fill="#F0E260"/>
</svg>
