<svg width="19" height="19" viewBox="0 0 19 19" fill="none" xmlns="http://www.w3.org/2000/svg">
<g clip-path="url(#clip0_2052_6964)">
<path d="M15.9464 9.4993C15.0095 9.4993 14.25 8.73979 14.25 7.80287C14.25 6.86596 15.0095 6.10645 15.9464 6.10645C16.8834 6.10645 17.6429 6.86596 17.6429 7.80287C17.6429 8.73979 16.8834 9.4993 15.9464 9.4993Z" stroke="#3A9186" stroke-width="1.5" stroke-linecap="round" stroke-linejoin="round"/>
<path d="M0.677734 16.2853V14.5889C0.677734 13.2772 1.74106 12.2139 3.05273 12.2139C3.88409 12.2139 4.61569 12.641 5.04 13.2878" stroke="#3A9186" stroke-width="1.5" stroke-linecap="round" stroke-linejoin="round"/>
<path d="M9.5 7.46387C10.8117 7.46387 11.875 6.40055 11.875 5.08887C11.875 3.77719 10.8117 2.71387 9.5 2.71387C8.18832 2.71387 7.125 3.77719 7.125 5.08887C7.125 6.40055 8.18832 7.46387 9.5 7.46387Z" stroke="#3A9186" stroke-width="1.5" stroke-linecap="round" stroke-linejoin="round"/>
<path d="M4.75 16.2849V14.9277C4.75 12.3044 6.87664 10.1777 9.5 10.1777C12.1234 10.1777 14.25 12.3044 14.25 14.9277V16.2849" stroke="#3A9186" stroke-width="1.5" stroke-linecap="round" stroke-linejoin="round"/>
<path d="M3.0519 9.4993C3.98881 9.4993 4.74833 8.73979 4.74833 7.80287C4.74833 6.86596 3.98881 6.10645 3.0519 6.10645C2.11498 6.10645 1.35547 6.86596 1.35547 7.80287C1.35547 8.73979 2.11498 9.4993 3.0519 9.4993Z" stroke="#3A9186" stroke-width="1.5" stroke-linecap="round" stroke-linejoin="round"/>
<path d="M18.3212 16.2853V14.5889C18.3212 13.2772 17.2579 12.2139 15.9462 12.2139C15.1149 12.2139 14.3834 12.641 13.959 13.2878" stroke="#3A9186" stroke-width="1.5" stroke-linecap="round" stroke-linejoin="round"/>
</g>
<defs>
<clipPath id="clip0_2052_6964">
<rect width="19" height="19" fill="white"/>
</clipPath>
</defs>
</svg>
