<svg width="17" height="15" viewBox="0 0 17 15" fill="none" xmlns="http://www.w3.org/2000/svg">
<path d="M12.75 6.66667H11.9C11.6746 6.66667 11.4584 6.75446 11.299 6.91074C11.1396 7.06702 11.05 7.27899 11.05 7.5C11.05 7.72101 11.1396 7.93297 11.299 8.08926C11.4584 8.24554 11.6746 8.33333 11.9 8.33333H12.75C12.9754 8.33333 13.1916 8.24554 13.351 8.08926C13.5104 7.93297 13.6 7.72101 13.6 7.5C13.6 7.27899 13.5104 7.06702 13.351 6.91074C13.1916 6.75446 12.9754 6.66667 12.75 6.66667ZM12.75 10H11.9C11.6746 10 11.4584 10.0878 11.299 10.2441C11.1396 10.4004 11.05 10.6123 11.05 10.8333C11.05 11.0543 11.1396 11.2663 11.299 11.4226C11.4584 11.5789 11.6746 11.6667 11.9 11.6667H12.75C12.9754 11.6667 13.1916 11.5789 13.351 11.4226C13.5104 11.2663 13.6 11.0543 13.6 10.8333C13.6 10.6123 13.5104 10.4004 13.351 10.2441C13.1916 10.0878 12.9754 10 12.75 10ZM7.65 5H12.75C12.9754 5 13.1916 4.9122 13.351 4.75592C13.5104 4.59964 13.6 4.38768 13.6 4.16667C13.6 3.94565 13.5104 3.73369 13.351 3.57741C13.1916 3.42113 12.9754 3.33333 12.75 3.33333H7.65C7.42457 3.33333 7.20837 3.42113 7.04896 3.57741C6.88955 3.73369 6.8 3.94565 6.8 4.16667C6.8 4.38768 6.88955 4.59964 7.04896 4.75592C7.20837 4.9122 7.42457 5 7.65 5ZM16.15 0H4.25C4.02457 0 3.80837 0.0877973 3.64896 0.244078C3.48955 0.400358 3.4 0.61232 3.4 0.833333V3.33333H0.85C0.624566 3.33333 0.408365 3.42113 0.248959 3.57741C0.0895533 3.73369 0 3.94565 0 4.16667V12.5C0 13.163 0.26866 13.7989 0.746878 14.2678C1.2251 14.7366 1.8737 15 2.55 15H13.6C14.5017 15 15.3665 14.6488 16.0042 14.0237C16.6418 13.3986 17 12.5507 17 11.6667V0.833333C17 0.61232 16.9104 0.400358 16.751 0.244078C16.5916 0.0877973 16.3754 0 16.15 0ZM3.4 12.5C3.4 12.721 3.31045 12.933 3.15104 13.0893C2.99163 13.2455 2.77543 13.3333 2.55 13.3333C2.32457 13.3333 2.10837 13.2455 1.94896 13.0893C1.78955 12.933 1.7 12.721 1.7 12.5V5H3.4V12.5ZM15.3 11.6667C15.3 12.1087 15.1209 12.5326 14.8021 12.8452C14.4833 13.1577 14.0509 13.3333 13.6 13.3333H4.947C5.04596 13.0661 5.0977 12.7843 5.1 12.5V1.66667H15.3V11.6667ZM7.65 8.33333H8.5C8.72543 8.33333 8.94164 8.24554 9.10104 8.08926C9.26045 7.93297 9.35 7.72101 9.35 7.5C9.35 7.27899 9.26045 7.06702 9.10104 6.91074C8.94164 6.75446 8.72543 6.66667 8.5 6.66667H7.65C7.42457 6.66667 7.20837 6.75446 7.04896 6.91074C6.88955 7.06702 6.8 7.27899 6.8 7.5C6.8 7.72101 6.88955 7.93297 7.04896 8.08926C7.20837 8.24554 7.42457 8.33333 7.65 8.33333ZM7.65 11.6667H8.5C8.72543 11.6667 8.94164 11.5789 9.10104 11.4226C9.26045 11.2663 9.35 11.0543 9.35 10.8333C9.35 10.6123 9.26045 10.4004 9.10104 10.2441C8.94164 10.0878 8.72543 10 8.5 10H7.65C7.42457 10 7.20837 10.0878 7.04896 10.2441C6.88955 10.4004 6.8 10.6123 6.8 10.8333C6.8 11.0543 6.88955 11.2663 7.04896 11.4226C7.20837 11.5789 7.42457 11.6667 7.65 11.6667Z" fill="white"/>
</svg>
