<svg width="15" height="17" viewBox="0 0 15 17" fill="none" xmlns="http://www.w3.org/2000/svg">
<path d="M14.8203 4.98524C14.8156 4.96403 14.8156 4.94209 14.8203 4.92089C14.8163 4.90232 14.8163 4.88315 14.8203 4.86458V4.79219L14.7706 4.67153C14.7504 4.63861 14.7252 4.60879 14.696 4.58305L14.6213 4.5187H14.5799L11.3135 2.51583L8.22955 0.665788C8.1582 0.610874 8.07656 0.5699 7.98914 0.545133H7.92281C7.84871 0.533133 7.77308 0.533133 7.69898 0.545133H7.61608C7.51978 0.565799 7.42745 0.60109 7.3425 0.649701L1.14967 4.39L1.07506 4.44631L1.00045 4.51066L0.917545 4.56697L0.876094 4.61523L0.826352 4.73588V4.80828V4.85654C0.818299 4.90988 0.818299 4.96407 0.826352 5.01741V12.0395C0.82607 12.1762 0.861698 12.3107 0.929873 12.4304C0.998048 12.55 1.09652 12.6508 1.21599 12.7232L7.43369 16.4555L7.55804 16.5038H7.62437C7.76462 16.5469 7.9152 16.5469 8.05546 16.5038H8.12178L8.24614 16.4555L14.4141 12.7795C14.5336 12.7071 14.632 12.6063 14.7002 12.4867C14.7684 12.367 14.804 12.2325 14.8037 12.0958V5.07372C14.8037 5.07372 14.8203 5.01741 14.8203 4.98524ZM7.78188 2.29061L9.25755 3.17541L4.62329 5.95852L3.13933 5.07372L7.78188 2.29061ZM6.95285 14.3561L2.39321 11.6534V6.51353L6.95285 9.24838V14.3561ZM7.78188 7.83269L6.19844 6.90767L10.8327 4.11652L12.4244 5.07372L7.78188 7.83269ZM13.1706 11.6293L8.61091 14.3802V9.24838L13.1706 6.51353V11.6293Z" fill="white"/>
</svg>
