<svg width="14" height="16" viewBox="0 0 14 16" fill="none" xmlns="http://www.w3.org/2000/svg">
<path d="M14 4.4491C13.9953 4.4279 13.9953 4.40596 14 4.38475C13.996 4.36619 13.996 4.34701 14 4.32845V4.25605L13.9503 4.1354C13.9301 4.10248 13.9049 4.07266 13.8756 4.04692L13.801 3.98257H13.7596L10.4932 1.9797L7.40924 0.129655C7.33789 0.074741 7.25625 0.0337669 7.16882 0.00900017H7.1025C7.0284 -0.00300006 6.95276 -0.00300006 6.87866 0.00900017H6.79576C6.69947 0.0296661 6.60714 0.0649567 6.52218 0.113568L0.32936 3.85387L0.254747 3.91018L0.180135 3.97453L0.0972323 4.03083L0.055781 4.07909L0.00603932 4.19975V4.27214V4.3204C-0.00201311 4.37374 -0.00201311 4.42794 0.00603932 4.48128V11.5034C0.00575738 11.6401 0.0413858 11.7746 0.109561 11.8942C0.177736 12.0139 0.276208 12.1147 0.395682 12.1871L6.61338 15.9194L6.73773 15.9676H6.80405C6.94431 16.0108 7.09489 16.0108 7.23515 15.9676H7.30147L7.42582 15.9194L13.5938 12.2434C13.7133 12.171 13.8117 12.0702 13.8799 11.9505C13.9481 11.8309 13.9837 11.6964 13.9834 11.5597V4.53758C13.9834 4.53758 14 4.48128 14 4.4491ZM6.96157 1.75448L8.43723 2.63928L3.80298 5.42239L2.31902 4.53758L6.96157 1.75448ZM6.13254 13.82L1.5729 11.1173V5.9774L6.13254 8.71224V13.82ZM6.96157 7.29656L5.37813 6.37154L10.0124 3.58039L11.6041 4.53758L6.96157 7.29656ZM12.3502 11.0932L7.79059 13.8441V8.71224L12.3502 5.9774V11.0932Z" fill="white"/>
</svg>
